<svg width="56" height="56" viewBox="0 0 56 56" fill="none" xmlns="http://www.w3.org/2000/svg">
<path d="M56 37.8918L50.3514 30.5016L43.0244 36.2164L44.587 38.1213L48.6383 34.8393L48.4299 36.9393C46.358 46.1885 38.4291 53.0279 29.2038 53.5787V20.2541H34.9682V17.8672H29.2038V10.5803C31.5188 10.0295 33.2898 7.91803 33.2898 5.35902C33.2898 2.37541 30.8822 0 28 0C25.1178 0 22.7102 2.38689 22.7102 5.35902C22.7102 7.90656 24.4812 10.0295 26.7962 10.5803V17.8672H21.0318V20.2541H26.7962V53.5787C17.5709 53.0279 9.642 46.1885 7.57007 36.9393L7.41959 34.8852L11.413 38.1328L12.9756 36.2279L5.64862 30.5131L0 37.9033L1.92146 39.3377L5.08144 35.218L5.27821 37.318V37.4328C7.57007 48.1279 17.1889 56 28 56C38.8111 56 48.4299 48.1279 50.7102 37.4098L50.9649 35.2639L54.0785 39.3148L56 37.8918ZM25.1178 5.37049C25.1178 3.70656 26.4374 2.38689 28 2.38689C29.5626 2.38689 30.8822 3.69508 30.8822 5.37049C30.8822 7.03443 29.5626 8.3541 28 8.3541C26.4374 8.34262 25.1178 7.03443 25.1178 5.37049Z" fill="white"/>
</svg>
