<svg width="56" height="56" viewBox="0 0 56 56" fill="none" xmlns="http://www.w3.org/2000/svg">
<path d="M51.4711 39.2079L43.3677 40.7606L43.8389 43.1414L49.2642 42.1063L47.9998 43.9695C43.1148 50.0422 35.8504 53.6191 27.9884 53.6191C13.816 53.6191 2.3793 42.1753 2.3793 27.9942C2.3793 27.6376 2.3793 27.3961 2.3793 27.0396L0 26.9246C0 27.2811 0 27.6376 0 27.9942C0 43.4864 12.5057 55.9998 27.9884 55.9998C36.5631 55.9998 44.5401 52.1814 50.0228 45.3956L51.1033 43.751L52.0458 48.731L54.4251 48.2595L52.8734 40.1511C52.7814 39.5645 52.1952 39.0929 51.4711 39.2079Z" fill="white"/>
<path d="M28.0112 0C19.4365 0 11.4595 3.81843 5.97679 10.6042L5.01128 12.0764L4.08025 7.1423L1.68945 7.62536L3.11474 15.7338C3.22968 16.3318 3.83887 16.8034 4.66645 16.6884L12.7699 15.1357L12.2986 12.7549L6.82737 13.7901L8.01127 12.0419C12.8848 5.95767 20.1492 2.38077 28.0112 2.38077C42.1836 2.38077 53.6203 13.8246 53.6203 28.0057C53.6203 28.3622 53.6203 28.6037 53.6203 28.9603L55.9996 29.0753C55.9996 28.7187 55.9996 28.3622 55.9996 28.0057C55.9996 12.5134 43.4939 0 28.0112 0Z" fill="white"/>
<path d="M16.8163 16.447H14.437V39.4496H16.8163V16.447Z" fill="white"/>
<path d="M25.0341 24.1873H22.6548V39.5645H25.0341V24.1873Z" fill="white"/>
<path d="M33.3671 20.3804H30.9878V39.5645H33.3671V20.3804Z" fill="white"/>
<path d="M41.5863 24.1873H39.207V39.5645H41.5863V24.1873Z" fill="white"/>
</svg>
