<svg width="49" height="56" viewBox="0 0 49 56" fill="none" xmlns="http://www.w3.org/2000/svg">
<path d="M23.4362 8.15844C15.4959 8.52408 8.92946 14.6143 8.18434 22.3955C7.81177 27.1374 9.54652 31.8907 13.1441 35.17C15.3795 37.2382 16.6136 39.7976 16.6136 42.5971V52.6978C16.6136 53.4291 17.1142 53.9204 17.8594 53.9204H22.9472V54.7774C22.9472 55.5087 23.4478 56 24.1929 56C24.9381 56 25.4387 55.5087 25.4387 54.7774V53.9204H30.5265C31.1436 53.9204 31.7723 53.4291 31.7723 52.8235V42.5971C31.7723 39.7976 33.018 37.2382 35.1254 35.2957C38.3504 32.3706 40.2132 28.12 40.2132 23.8581C40.1783 14.9685 32.6106 7.66711 23.4362 8.15844ZM19.2215 44.2996H29.2691V46.6191H19.2215V44.2996ZM19.2215 51.4867V49.0529H29.2691V51.4867H19.2215ZM33.3557 33.4675C30.9107 35.7528 29.4438 38.6893 29.2808 41.8658H19.1866C18.9654 38.7693 17.4984 35.8099 15.0069 33.4675C11.91 30.6681 10.4197 26.7718 10.7923 22.6355C11.4093 16.0654 16.8697 10.9464 23.5642 10.5808C31.2484 10.2152 37.6984 16.3053 37.6984 23.8466C37.6984 27.503 36.0917 30.9195 33.3557 33.4675Z" fill="white"/>
<path d="M27.2785 20.819L27.4066 15.5857C27.4066 14.6602 26.1608 13.9289 25.2993 14.7288L14.2621 25.5608C13.3074 26.4978 13.9244 27.629 15.1353 27.629H20.9682L20.4676 33.2278C20.4676 34.4847 21.7599 34.8275 22.5749 34.1991L34.1127 22.8757C34.8346 22.2701 34.5901 20.8075 33.2395 20.8075H27.2785V20.819ZM23.192 30.1885L23.5645 26.6578C23.6577 25.9722 23.32 25.3209 22.3188 25.3209H18.1041L24.7986 18.7508L24.6706 22.1558C24.6706 23.1613 25.3924 23.3784 25.9163 23.3784H30.131L23.192 30.1885Z" fill="white"/>
<path d="M25.4159 0H22.936V5.10752H25.4159V0Z" fill="white"/>
<path d="M7.97236 6.10864L11.6522 9.72013L9.89875 11.441L6.21875 7.82955L7.97236 6.10864Z" fill="white"/>
<path d="M5.20425 22.521H0V24.9548H5.20425V22.521Z" fill="white"/>
<path d="M48.3644 22.521H43.1602V24.9548H48.3644V22.521Z" fill="white"/>
<path d="M38.4932 11.4386L36.7397 9.71769L40.4196 6.1062L42.1731 7.8271L38.4932 11.4386Z" fill="white"/>
</svg>
