<svg width="117" height="25" viewBox="0 0 117 25" fill="none" xmlns="http://www.w3.org/2000/svg">
<path d="M33.9374 12.9608C34.7153 12.6349 36.1658 11.6529 36.1658 10.9363C36.1658 7.9141 34.8229 6.18088 32.4818 6.18088C28.9914 6.18088 26.647 9.7678 26.647 13.1177C26.647 14.9303 27.1185 16.4335 28.0103 17.4651C28.858 18.4452 30.0398 18.9634 31.4276 18.9634C33.7022 18.9634 35.022 17.562 35.8164 16.5075L35.8437 16.4713L35.5684 16.1424L35.5245 16.1759C34.7861 16.7383 33.6845 17.0868 32.65 17.0868C30.6734 17.0868 29.3006 15.4713 29.141 12.9656H33.9154L33.9374 12.9608ZM31.4276 7.47006C32.9384 7.47006 33.8446 9.07244 33.8571 11.7595H29.1403C29.2176 10.0782 29.5793 8.6427 30.1604 7.70893C30.4064 7.59192 30.926 7.47006 31.4276 7.47006Z" fill="#6C7583"/>
<path d="M105.634 6.30689H103.331L99.9423 11.5324C99.6542 11.9418 99.5458 12.0953 99.0619 12.0953H98.8245V11.3976C98.8245 9.65149 98.8245 8.00226 98.9503 6.36851L98.9554 6.30666H96.1324L96.1368 6.36851C96.2633 8.00203 96.2633 9.65149 96.2633 11.3976V13.7464C96.2633 15.4925 96.2633 17.142 96.1368 18.7757L96.1324 18.8376H98.9554L98.9503 18.7757C98.8245 17.142 98.8245 15.4925 98.8245 13.7464V13.1747H99.0619C99.424 13.1747 99.5895 13.4233 99.8648 13.8345C99.9147 13.9093 99.9681 13.9892 100.026 14.0725L103.248 18.8374H106.429L101.201 11.7766L105.634 6.30689Z" fill="#6C7583"/>
<path d="M24.9562 6.30689H22.2618V11.8435H17.5283V6.30689H14.8341L14.841 6.37035C14.9809 7.65862 14.9753 8.93511 14.9695 10.2866C14.9684 10.5569 14.9672 10.8297 14.9672 11.1041V13.7464C14.9672 15.4925 14.9672 17.142 14.8408 18.7757L14.8361 18.8376H17.5283V13.1747H22.2618V18.8374H24.9541L24.9493 18.7755C24.823 17.1417 24.823 15.4923 24.823 13.7461V11.1041C24.823 10.8294 24.8219 10.5566 24.8207 10.2866C24.8147 8.93535 24.8091 7.65862 24.9493 6.37035L24.9562 6.30689Z" fill="#6C7583"/>
<path d="M12.7551 15.5465C11.7167 16.3317 10.0504 17.1708 8.48909 17.1708C5.1694 17.1708 2.93872 14.2947 2.93872 10.0134C2.93872 8.35122 3.22408 2.88428 6.89571 2.31031C7.22979 2.26023 7.57687 2.23484 7.92649 2.23484C9.35167 2.23484 10.7836 2.64588 11.9577 3.39225L12.0169 3.42964L12.9498 1.08667L12.8936 1.06659C11.9095 0.716942 10.6611 0.5 9.63633 0.5C9.46697 0.5 9.30642 0.506231 9.15957 0.518232C6.54632 0.698017 4.29801 1.83858 2.65754 3.81598C1.13306 5.65352 0.293457 8.04819 0.293457 10.5587C0.293457 13.1699 0.969273 15.3333 2.2469 16.8143C3.45956 18.2202 5.15154 18.9634 7.13978 18.9634C9.46186 18.9634 11.5334 17.926 13.13 15.9636L13.1604 15.9262L12.7978 15.5138L12.7551 15.5465Z" fill="#6C7583"/>
<path d="M38.2009 6.37035C38.3408 7.65885 38.3354 8.93488 38.3294 10.2866C38.3282 10.5569 38.3268 10.8297 38.3268 11.1043V13.7466C38.3268 15.493 38.3268 17.1422 38.2009 18.7757L38.196 18.8376H41.0194L41.0143 18.7757C40.8884 17.1424 40.8883 15.493 40.8883 13.7466V7.63808H45.8218V6.30689H38.1944L38.2009 6.37035Z" fill="#6C7583"/>
<path d="M93.4338 6.30689H90.7393V12.3162L90.6563 12.3547C89.8749 12.7175 89.1362 13.0598 88.3096 13.0598C86.7427 13.0598 86.4276 12.1191 86.4276 10.6007V6.30689H83.7336L83.7408 6.37035C83.8807 7.65862 83.8749 8.93511 83.8691 10.2866C83.8682 10.5569 83.8666 10.8297 83.8666 11.1041C83.8666 13.5357 85.0495 14.7685 87.3818 14.7685C88.3966 14.7685 89.4958 14.3647 90.7396 13.5343V13.7464C90.7396 15.4925 90.7396 17.142 90.6131 18.7757L90.6085 18.8376H93.4317L93.4271 18.7757C93.3004 17.142 93.3004 15.4925 93.3004 13.7464V11.1041C93.3004 10.8294 93.2995 10.5566 93.2981 10.2866C93.2923 8.93535 93.2865 7.65862 93.4268 6.37035L93.4338 6.30689Z" fill="#6C7583"/>
<path d="M77.262 6.18088C75.6241 6.18088 74.1251 6.96925 73.0415 8.40084C72.0696 9.68472 71.5117 11.3582 71.5117 12.9922C71.5117 16.5639 73.5006 18.9636 76.4607 18.9636C80.223 18.9636 82.253 15.3898 82.253 12.0272C82.2528 9.21114 80.6912 6.18088 77.262 6.18088ZM74.7736 8.0475C75.2434 7.90949 75.648 7.84764 76.0814 7.84764C78.1545 7.84764 79.6565 9.84258 79.7342 12.6993C79.7713 14.2548 79.5089 15.8964 79.0317 17.097C78.5805 17.2297 78.1408 17.2966 77.7258 17.2966C75.6526 17.2966 74.1504 15.3012 74.0727 12.4436C73.982 10.5405 74.3731 8.9305 74.7736 8.0475Z" fill="#6C7583"/>
<path d="M65.6662 6.18088C64.4841 6.18088 63.3411 6.76547 62.1741 7.96811L61.834 6.30712H59.3542L59.369 6.37612C59.6237 7.56977 59.7474 9.11652 59.7474 11.1043V19.4095C59.7474 21.1552 59.7474 22.8044 59.6212 24.4384L59.6161 24.5H62.4395L62.4347 24.4384C62.3082 22.8044 62.3082 21.1552 62.3082 19.4095V18.6957C62.7543 18.8662 63.2513 18.9631 63.6842 18.9631C65.2987 18.9631 66.8215 18.1699 67.9725 16.7289C69.0891 15.3307 69.7294 13.4337 69.7294 11.5232C69.7297 8.12805 68.2486 6.18088 65.6662 6.18088ZM66.0056 17.3095C65.7518 17.4295 65.1706 17.5479 64.5278 17.5479C63.9301 17.5479 63.0376 17.4111 62.3084 17.028V9.13382C62.9047 8.67686 63.7654 8.14166 64.5278 8.14166C66.336 8.14166 67.2528 9.68841 67.2528 12.7397C67.2528 14.8648 66.5768 16.3958 66.0056 17.3095Z" fill="#6C7583"/>
<path d="M56.2071 6.35189C55.564 9.29445 54.7517 11.7801 53.3839 15.6148L53.3352 15.7496C53.0929 14.706 52.7129 13.6799 52.3113 12.6351L49.8514 6.30666H46.8849L46.9373 6.39343C47.4472 7.23928 47.83 8.21782 48.4089 9.69857L52.1072 19.1706C51.3977 21.151 50.1881 23.4008 49.5526 24.3694L49.4942 24.458H51.6671L51.6801 24.4176C52.2357 22.6218 52.8009 20.9212 53.408 19.2189L54.884 15.108C55.7296 12.7309 56.7548 10.0674 57.7464 7.49153L58.2023 6.30666H56.2164L56.2071 6.35189Z" fill="#6C7583"/>
<path d="M116.28 18.7693C115.943 17.055 115.943 15.5216 115.943 13.7464V10.7685C115.943 7.93857 114.338 6.18088 111.753 6.18088C109.479 6.18088 108.159 7.58269 107.364 8.63694L107.337 8.67317L107.612 9.00204L107.657 8.96881C108.395 8.40638 109.497 8.05765 110.531 8.05765C112.529 8.05765 113.382 9.00666 113.382 11.2299V11.5269C112.793 11.5615 111.458 11.6563 110.602 11.8451C107.896 12.4953 106.636 13.7658 106.636 15.8445C106.636 17.7709 108.066 18.9638 109.392 18.9638C110.645 18.9638 111.936 18.4332 113.448 17.2955L113.773 18.8378H116.293L116.28 18.7693ZM113.382 12.7976V16.1053C112.678 16.622 111.806 17.2546 110.868 17.2546C109.744 17.2546 109.197 16.5461 109.197 15.0889C109.197 14.3937 109.348 13.6305 109.603 13.0406C110.474 12.8318 112.069 12.7999 113.382 12.7976Z" fill="#6C7583"/>
</svg>
