<svg width="106" height="21" viewBox="0 0 106 21" fill="none" xmlns="http://www.w3.org/2000/svg">
<path d="M11.1344 6.36851L17.4591 6.36104V2.44939H10.4418C10.3438 2.44299 10.2458 2.43872 10.1456 2.43872C9.1138 2.43804 8.11313 2.789 7.31157 3.43269C6.51002 4.07638 5.95637 4.97363 5.74355 5.97383C5.53073 6.97404 5.6717 8.01633 6.14279 8.92576C6.61388 9.8352 7.38642 10.5564 8.33075 10.9684L12.833 13.1974C13.8928 13.7213 13.7216 14.6741 12.5228 14.6741H6.09364V12.7044L3.42138 14.6528L0.748047 16.6022L3.42138 18.5505L6.09364 20.5V18.5324L13.741 18.6231C14.933 18.6231 16.0763 18.154 16.9192 17.319C17.7621 16.4839 18.2357 15.3514 18.2357 14.1705C18.2357 12.9167 17.9836 11.5606 16.8354 10.7614L11.0105 7.75562C10.542 7.51341 10.6056 6.36851 11.1344 6.36851ZM32.4349 2.50594V12.9029C32.4349 14.7381 31.807 16.2045 30.5511 17.3021C29.2952 18.3997 27.625 18.9485 25.5405 18.9485C23.4581 18.9485 21.868 18.415 20.77 17.348C19.6721 16.281 19.121 14.7477 19.1167 12.7482V2.50488H23.9776V13.2571C23.9788 13.7294 24.1686 14.1819 24.5057 14.5159C24.8428 14.8498 25.2997 15.0379 25.7764 15.039C26.253 15.0376 26.7097 14.8494 27.0467 14.5156C27.3837 14.1817 27.5737 13.7293 27.5751 13.2571V2.50594H32.4349ZM42.8396 18.542C43.837 18.5415 44.8059 18.2124 45.5938 17.6066C46.3818 17.0008 46.944 16.1526 47.1919 15.1956C47.4399 14.2385 47.3596 13.227 46.9636 12.3201C46.5676 11.4132 45.8784 10.6626 45.0045 10.1863C45.7202 9.68263 46.2613 8.97234 46.554 8.15249C46.8466 7.33264 46.8765 6.44325 46.6396 5.60592C46.4027 4.76859 45.9105 4.02418 45.2303 3.47446C44.5502 2.92474 43.7152 2.59655 42.8396 2.53475V2.48994H33.8147V18.542H42.8396ZM38.6303 11.9042H40.9622C41.409 11.9067 41.8366 12.0839 42.1521 12.3972C42.4676 12.7106 42.6454 13.1347 42.6468 13.5772C42.6457 13.9909 42.4793 14.3873 42.184 14.6798C41.8887 14.9723 41.4886 15.1371 41.071 15.1383H38.626V11.9042H38.6303ZM38.6303 6.03561H40.582C40.9564 6.03673 41.315 6.18462 41.5796 6.44694C41.8442 6.70926 41.9932 7.06468 41.9941 7.43552C41.9921 7.7809 41.8524 8.1115 41.6055 8.35533C41.3586 8.59915 41.0244 8.73643 40.6757 8.73727H38.6293V6.03134L38.6303 6.03561Z" fill="#6C7583"/>
<path fill-rule="evenodd" clip-rule="evenodd" d="M97.6204 6.328V9.62825C97.6167 10.7343 97.1865 11.7972 96.4179 12.5995C95.6492 13.4017 94.6003 13.8828 93.4855 13.9443V18.6391H88.2605V13.9315C87.1784 13.8298 86.1733 13.3328 85.4406 12.5374C84.708 11.742 84.3003 10.705 84.2968 9.62825V2.46756H89.077V8.86961C89.0781 9.27177 89.2398 9.65716 89.5267 9.94163C89.8137 10.2261 90.2026 10.3866 90.6086 10.388H91.3087C91.7146 10.3863 92.1034 10.2255 92.3902 9.94088C92.6769 9.65621 92.8384 9.27071 92.8392 8.86854V5.47012H92.8564V5.40824C92.8564 4.62945 93.1687 3.88257 93.7246 3.33188C94.2805 2.7812 95.0345 2.47183 95.8206 2.47183H99.948V0.5L102.62 2.44942L105.294 4.39778L102.62 6.34614L99.948 8.29556V6.328H97.6204ZM74.5503 18.573H69.6667V8.37665C69.6667 6.40909 70.2839 4.87971 71.5183 3.78852C72.7526 2.69733 74.4892 2.15244 76.7281 2.15386C78.888 2.15386 80.4839 2.64789 81.5158 3.63594C82.5476 4.62399 83.0639 6.1491 83.0646 8.21127V18.5719H78.1811V13.8846H74.5503V18.573ZM78.1811 10.4232V7.73005C78.1797 7.25346 77.9879 6.79681 77.6476 6.45991C77.3073 6.12301 76.8462 5.93326 76.3651 5.93214C75.8842 5.93355 75.4235 6.12342 75.0834 6.46029C74.7433 6.79716 74.5517 7.25365 74.5503 7.73005V10.4232H78.1811ZM68.4755 2.53905V14.0851C68.4755 15.532 67.9628 16.7057 66.9352 17.6148C65.9077 18.5239 64.5796 18.9816 62.95 18.9816C62.8423 18.9816 62.7454 18.9816 62.6463 18.9816C61.7652 19.0414 59.8695 19.067 58.4532 17.793C57.0853 19.1662 55.1885 19.0233 54.4841 18.9955C54.231 18.9859 53.9649 18.9795 53.686 18.9795C51.9799 18.9795 50.6719 18.5239 49.7621 17.6127C48.8524 16.7015 48.3993 15.3929 48.4029 13.6872V2.53905H53.2196V13.4887C53.2207 13.8647 53.372 14.225 53.6404 14.4909C53.9088 14.7568 54.2725 14.9067 54.6521 14.9078C55.0316 14.9064 55.3952 14.7564 55.6635 14.4906C55.9318 14.2248 56.0832 13.8646 56.0847 13.4887V2.53905H60.6806V13.4887C60.682 13.8646 60.8334 14.2248 61.1017 14.4906C61.3701 14.7564 61.7336 14.9064 62.1131 14.9078C62.4926 14.9064 62.8562 14.7564 63.1245 14.4906C63.3928 14.2248 63.5442 13.8646 63.5456 13.4887V2.53905H68.4755ZM95.7398 16.2341C95.9483 16.2352 96.1532 16.2884 96.3355 16.3888C96.5262 16.4901 96.6833 16.6439 96.7878 16.8316C96.893 17.0151 96.9486 17.2224 96.9494 17.4334C96.9489 17.6422 96.894 17.8473 96.79 18.0288C96.6869 18.2167 96.5313 18.3712 96.3419 18.4738C96.1584 18.5772 95.9509 18.6316 95.7398 18.6316C95.5287 18.6316 95.3212 18.5772 95.1377 18.4738C94.9486 18.3708 94.7931 18.2164 94.6897 18.0288C94.5838 17.8467 94.5281 17.6403 94.5281 17.4302C94.5281 17.2201 94.5838 17.0137 94.6897 16.8316C94.7942 16.6439 94.9513 16.4901 95.142 16.3888C95.3243 16.2884 95.5291 16.2352 95.7377 16.2341H95.7398ZM95.7398 16.4326C95.5659 16.4333 95.3951 16.4777 95.2433 16.5617C95.0842 16.6469 94.9531 16.7753 94.8652 16.9319C94.7769 17.0846 94.7301 17.2574 94.7295 17.4334C94.7297 17.6075 94.7757 17.7785 94.8631 17.9296C94.9497 18.086 95.0798 18.2145 95.2379 18.2998C95.3905 18.3872 95.5636 18.4332 95.7398 18.4332C95.9161 18.4332 96.0892 18.3872 96.2417 18.2998C96.3998 18.2147 96.5296 18.0862 96.6155 17.9296C96.7029 17.7785 96.7489 17.6075 96.7491 17.4334C96.7471 17.257 96.6989 17.0842 96.609 16.9319C96.5218 16.7749 96.3905 16.6462 96.231 16.5617C96.0794 16.478 95.909 16.4336 95.7355 16.4326H95.7398ZM95.2088 18.095V16.806H95.6569C95.7687 16.8013 95.8806 16.8135 95.9886 16.8423C96.0559 16.8648 96.1138 16.9087 96.1534 16.9671C96.1924 17.0226 96.2134 17.0884 96.2137 17.156C96.2133 17.202 96.2036 17.2474 96.1851 17.2896C96.1666 17.3317 96.1397 17.3698 96.106 17.4014C96.0337 17.473 95.9368 17.5149 95.8346 17.5188C95.8745 17.5347 95.911 17.5578 95.9423 17.5871C96.0161 17.665 96.0807 17.7509 96.1351 17.8431L96.2934 18.095H96.0382L95.9229 17.8922C95.868 17.7797 95.7932 17.6778 95.7021 17.5913C95.6525 17.559 95.5933 17.544 95.5341 17.5487H95.4242V18.095H95.2088ZM95.4242 17.3694H95.6795C95.7664 17.3776 95.8537 17.359 95.9294 17.316C95.9648 17.2868 95.9879 17.2456 95.9943 17.2005C96.0006 17.1553 95.9898 17.1094 95.9639 17.0717C95.9416 17.0409 95.9104 17.0174 95.8745 17.0045C95.8044 16.9852 95.7316 16.9776 95.659 16.9821H95.4242V17.3694Z" fill="#6C7583"/>
</svg>
