<svg width="56" height="56" viewBox="0 0 56 56" fill="none" xmlns="http://www.w3.org/2000/svg">
<path d="M46.5045 22.4106C36.975 12.7424 24.2006 9.94247 17.5049 15.8851C14.7283 14.6166 5.33602 9.81676 2.27381 0L0 0.7314C3.17647 10.9139 12.1346 16.0108 15.8367 17.725C10.7977 24.6848 13.7 37.05 22.8866 46.3639C32.6788 56.295 45.8989 58.992 52.4232 52.3751C58.9475 45.7697 56.2967 32.353 46.5045 22.4106ZM37.8891 18.6621L29.3424 27.3361L19.4587 17.3022C23.8007 13.8623 30.9992 14.5594 37.8891 18.6621ZM17.8362 18.9364L27.7199 28.9589L19.1845 37.6214C15.1625 30.6502 14.4655 23.3591 17.8362 18.9364ZM50.7893 50.718C45.2019 56.3864 33.4672 53.6665 24.5777 44.6497C23.0237 43.0726 21.664 41.4155 20.51 39.7128L39.9458 19.9878C41.6255 21.1649 43.2594 22.5477 44.8134 24.1248C53.7029 33.1416 56.3767 45.0497 50.7893 50.718Z" fill="#131A23"/>
</svg>
