<svg width="56" height="64" viewBox="0 0 56 64" fill="none" xmlns="http://www.w3.org/2000/svg">
<path d="M51.1082 20.9578C51.3851 20.8206 51.6474 20.6436 51.8784 20.4155L52.9094 19.4018C54.1024 18.2291 54.1024 16.3109 52.9094 15.1383L49.7289 12.0138C49.1329 11.4277 48.3473 11.1348 47.561 11.1348C46.7748 11.1348 45.9877 11.4284 45.3917 12.0151L44.3621 13.0274C44.1298 13.2555 43.9486 13.5139 43.8089 13.7872C39.6058 10.957 34.5773 9.22637 29.1506 9.01087V6.75775H33.738C35.4265 6.75775 36.8065 5.40063 36.8065 3.743V3.01463C36.8065 1.35638 35.4265 0 33.738 0H22.2617C20.5733 0 19.1932 1.35637 19.1932 3.01475V3.74312C19.1932 5.40075 20.5733 6.75787 22.2617 6.75787H26.8491V9.01125C11.9187 9.6045 0 21.6771 0 36.4916C0 51.6851 12.5349 64 28 64C43.4651 64 56 51.6851 56 36.4916C56.0001 30.7265 54.1934 25.3779 51.1082 20.9578ZM45.9883 14.6256L47.0194 13.6134C47.2112 13.4244 47.4405 13.3958 47.5602 13.3958C47.6798 13.3958 47.9091 13.4242 48.1009 13.6126L51.2813 16.7372C51.5751 17.0265 51.5751 17.5152 51.2813 17.8044L50.2503 18.8172C50.0585 19.0055 49.8277 19.0341 49.7079 19.0341C49.6888 19.0341 49.6611 19.0311 49.6358 19.0289C48.4791 17.6476 47.1895 16.3786 45.7826 15.2421C45.759 15.0209 45.8204 14.792 45.9883 14.6256ZM29.1584 11.272C42.4152 11.8526 53.0904 22.3481 53.6703 35.3763H29.1584V11.272ZM22.2619 4.49687C21.8452 4.49687 21.4947 4.15112 21.4947 3.743V3.01463C21.4947 2.6065 21.8452 2.26075 22.2619 2.26075H33.7381C34.1548 2.26075 34.5053 2.60637 34.5053 3.01463V3.743C34.5053 4.15112 34.1548 4.49687 33.7381 4.49687H22.2619ZM28 61.7399C13.8304 61.7399 2.30127 50.413 2.30127 36.4924C2.30127 22.9476 13.2152 11.8631 26.857 11.2727V36.5075C26.857 36.805 26.9797 37.0964 27.1938 37.3073C27.4078 37.5181 27.7046 37.6379 28.0078 37.6379H53.6689C53.0574 51.0284 41.7799 61.7399 28 61.7399Z" fill="#131A23"/>
<path d="M18.1679 25.9872L15.4561 23.3226C15.0066 22.8814 14.2769 22.8814 13.829 23.3226C13.3795 23.7647 13.3795 24.4802 13.829 24.9215L16.5408 27.5861C16.9902 28.0274 17.7184 28.0274 18.1679 27.5861C18.6173 27.144 18.6173 26.4285 18.1679 25.9872Z" fill="#131A23"/>
<path d="M13.104 35.7378L9.26836 35.7393C8.63313 35.7393 8.11759 36.2454 8.11759 36.8705C8.11759 37.4949 8.63313 38.0003 9.26836 38.0003L13.104 37.9987C13.7408 37.9987 14.2548 37.4926 14.2548 36.8676C14.2548 36.243 13.7392 35.7378 13.104 35.7378Z" fill="#131A23"/>
<path d="M18.1685 46.1504C17.719 45.7091 16.9902 45.7091 16.5414 46.1504L13.8296 48.8164C13.3802 49.2576 13.3802 49.974 13.8296 50.4145C14.2791 50.8566 15.0088 50.8566 15.4567 50.4145L18.1685 47.7492C18.6179 47.3071 18.6179 46.5916 18.1685 46.1504Z" fill="#131A23"/>
<path d="M27.6164 49.9958C26.9811 49.9958 26.4656 50.5025 26.4656 51.1261V54.8961C26.4656 55.5205 26.9811 56.0265 27.6164 56.0265C28.2516 56.0265 28.7671 55.5204 28.7671 54.8961V51.1261C28.7671 50.5026 28.2516 49.9958 27.6164 49.9958Z" fill="#131A23"/>
<path d="M41.4055 48.8164L38.6922 46.1504C38.2428 45.7091 37.5146 45.7091 37.0651 46.1504C36.6157 46.5925 36.6157 47.3071 37.0651 47.7492L39.7784 50.4145C40.2279 50.8566 40.9561 50.8566 41.4055 50.4145C41.855 49.9733 41.855 49.2578 41.4055 48.8164Z" fill="#131A23"/>
<path d="M41.4055 23.3219C40.9561 22.8806 40.2273 22.8806 39.7784 23.3219L37.0651 25.9871C36.6157 26.4284 36.6157 27.1439 37.0651 27.586C37.5146 28.0272 38.2428 28.0272 38.6922 27.586L41.4055 24.9207C41.855 24.4794 41.855 23.7639 41.4055 23.3219Z" fill="#131A23"/>
</svg>
