<svg width="56" height="56" viewBox="0 0 56 56" fill="none" xmlns="http://www.w3.org/2000/svg">
<path d="M50.296 0C49.8387 0 49.4272 0.171429 49.0386 0.468571L26.7712 14.2971H14.6544C6.54991 14.2971 0 20.3771 0 28C0 35.6229 6.54991 41.7029 14.6544 41.7029H26.7597L49.2786 55.7029C49.5873 55.8971 49.9302 56 50.2845 56C55.8857 56 56 30.8571 56 28C56 25.1429 55.8971 0 50.296 0ZM46.9582 28C46.9582 26.8457 46.9696 25.7371 46.9924 24.6629H50.296C52.2049 24.6629 53.6338 26.0914 53.6338 28C53.6338 29.9086 52.0792 31.3371 50.296 31.3371H46.9924C46.9696 30.2629 46.9582 29.1543 46.9582 28ZM53.5652 23.3143C52.6279 22.6629 51.4962 22.2857 50.296 22.2857H47.061C47.4954 10.2171 49.2558 3.64571 50.296 2.50286C51.3591 3.68 53.188 10.5829 53.5652 23.3143ZM2.38906 28C2.38906 21.8057 7.87589 16.6857 14.6659 16.6857H25.9824V39.3143H14.6659C7.86446 39.3143 2.38906 34.32 2.38906 28ZM28.3601 16.08L46.7753 4.81143C44.6377 12.2629 44.5691 25.9314 44.5691 28C44.5691 30.0686 44.6263 43.8629 46.7981 51.28L28.3601 39.9086V16.08ZM50.296 53.4971C49.2558 52.3543 47.4954 45.7829 47.061 33.7143H50.296C51.5191 33.7143 52.6393 33.3486 53.5652 32.72C53.188 45.4286 51.3591 52.32 50.296 53.4971Z" fill="#131A23"/>
</svg>
