<svg width="56" height="56" viewBox="0 0 56 56" fill="none" xmlns="http://www.w3.org/2000/svg">
<path d="M49.8896 29.6977C49.9236 29.6668 49.9712 29.6582 50.0039 29.6255C50.5631 29.0662 50.8688 28.3107 50.9112 27.3812C51.0826 23.7625 46.8547 16.9875 40.3921 10.5255C34.0811 4.21395 27.4147 0 23.7559 0C23.7286 0 23.7037 0 23.6763 0C22.6821 0.0174204 21.8793 0.325619 21.2902 0.914573C21.2578 0.947027 21.2402 0.988669 21.2096 1.02232L21.2007 1.01516L17.8912 5.11707C11.5523 5.39783 2.55873 9.87834 2.55873 16.5425C2.55873 18.6131 3.41567 20.2138 4.70228 21.4628L0.816327 26.2788C0.473288 26.6231 0.0489931 27.2482 0.00424886 28.2658C-0.137382 31.3365 3.27213 36.818 8.6832 42.2297C13.9701 47.5148 19.3613 50.9098 22.456 50.9098C22.4808 50.9098 22.5032 50.9098 22.5255 50.9098C23.6217 50.8912 24.2803 50.4537 24.5389 50.1841L49.9045 29.7162L49.8896 29.6977ZM15.5892 7.97009L6.30102 19.4814C5.5721 18.6853 5.10402 17.7241 5.10402 16.5425C5.1039 12.3361 10.6759 8.99825 15.5892 7.97009ZM22.8337 48.2978C22.8213 48.3102 22.7219 48.3611 22.4833 48.3648C22.4734 48.3648 22.461 48.3648 22.4484 48.3648C20.4898 48.3648 15.6528 45.5974 10.4828 40.4303C5.21332 35.1602 2.46172 30.2901 2.54871 28.3825C2.55861 28.1775 2.60335 28.0904 2.70776 27.9749L6.73892 22.9806C10.0456 24.8837 14.4411 25.4498 16.5575 25.4498C19.261 25.4498 21.4007 25.3776 23.7643 24.7693C24.2166 25.1821 24.806 25.4498 25.4659 25.4498C26.8703 25.4498 28.0112 24.3078 28.0112 22.9048C28.0112 21.5018 26.8703 20.3597 25.4659 20.3597C24.2595 20.3597 23.2949 21.2198 23.0336 22.347C21.0972 22.8377 19.2809 22.9048 16.5575 22.9048C15.0878 22.9048 11.1812 22.4991 8.33706 21.0007L20.7562 5.61534C22.0048 9.75604 26.2287 15.3424 30.9021 20.0145C35.5871 24.7001 41.1784 28.9062 45.3225 30.1421L22.8337 48.2978ZM48.3709 27.2631C48.3636 27.4136 48.3294 27.677 48.2123 27.8091L48.1821 27.8334C47.1419 28.7994 40.7857 26.2984 32.7017 18.2151C24.6046 10.1202 22.1128 3.76568 23.0841 2.73131L23.103 2.70768C23.2554 2.56343 23.547 2.53515 23.7683 2.54493C26.2813 2.54493 32.1547 5.88894 38.5925 12.3248C45.0948 18.8265 48.4827 24.8722 48.3709 27.2631Z" fill="#131A23"/>
<path d="M50.6831 38.7342C50.2109 38.0457 49.0626 38.0457 48.5903 38.7342C47.7029 40.0191 43.2736 46.5841 43.2736 49.6375C43.2736 53.1456 46.1271 56 49.6367 56C53.1463 56 55.9998 53.1456 55.9998 49.6375C55.9998 46.5841 51.5705 40.0191 50.6831 38.7342ZM49.6367 53.4549C47.5314 53.4549 45.8188 51.7425 45.8188 49.6375C45.8188 48.2481 47.8048 44.6208 49.6367 41.7577C51.4686 44.6196 53.4547 48.2458 53.4547 49.6375C53.4547 51.7425 51.7421 53.4549 49.6367 53.4549Z" fill="#131A23"/>
</svg>
