<svg width="93" height="57" viewBox="0 0 93 57" fill="none" xmlns="http://www.w3.org/2000/svg">
<path d="M86.2808 30.7948C86.2808 28.9768 87.7142 27.9019 89.2871 27.9019C90.86 27.9019 92.2934 28.9768 92.2934 30.7948C92.2934 32.6128 90.86 33.6877 89.2871 33.6877C87.7142 33.6911 86.2808 32.6128 86.2808 30.7948ZM89.2871 28.4652C88.042 28.4652 87.0515 29.4157 87.0515 30.7982C87.0515 32.1807 88.042 33.1312 89.2871 33.1312C90.5078 33.1312 91.5227 32.1807 91.5227 30.7982C91.5227 29.4157 90.5078 28.4652 89.2871 28.4652ZM88.7919 32.3812H88.0978V29.2049H89.3011C90.1346 29.2049 90.6089 29.4399 90.6089 30.1657C90.6089 30.7498 90.2706 30.978 89.7265 31.0091L90.5601 32.3812H89.8591L89.1127 31.0471H88.7919V32.3812ZM88.7919 30.5148H89.3987C89.7754 30.5148 89.9184 30.3351 89.9184 30.0931C89.9184 29.8063 89.6986 29.7337 89.3673 29.7337H88.7919V30.5148Z" fill="#6C7583"/>
<path d="M4.55578 31.417H8.53516C11.5694 31.417 13.0272 32.6751 12.4727 35.1947C12.1867 36.477 11.3043 37.5312 9.97206 38.2466C11.3043 39.2213 11.7333 40.0335 11.3253 41.8619C10.6696 44.7687 8.41309 46.0924 5.41722 46.0924H1.27393L4.55578 31.417ZM4.61507 43.7767H5.80435C7.27961 43.7767 8.26661 42.9195 8.5526 41.6407C8.85951 40.2374 8.01899 39.5462 6.54024 39.5462H5.56021L4.61507 43.7767ZM6.09382 37.2305H7.07733C8.35031 37.2305 9.35824 36.5012 9.58493 35.5058C9.80814 34.4274 9.33731 33.7362 8.00504 33.7362H6.87505L6.09382 37.2305Z" fill="#6C7583"/>
<path d="M14.4599 36.1349C15.2586 32.5161 17.4732 31.2166 20.2215 31.2166C22.9697 31.2166 24.6124 32.5161 23.8137 36.1349L22.621 41.3781C21.8223 44.9933 19.6076 46.2964 16.8594 46.2964C14.1112 46.2964 12.4685 44.9933 13.2706 41.3781L14.4599 36.1349ZM16.0189 41.7444C15.6736 43.3689 16.2874 43.8182 17.4139 43.8182C18.5404 43.8182 19.3635 43.3689 19.7123 41.7444L21.069 35.7685C21.4177 34.1406 20.8004 33.6947 19.6739 33.6947C18.5439 33.6947 17.7243 34.1406 17.3756 35.7685L16.0189 41.7444Z" fill="#6C7583"/>
<path d="M23.6987 46.096L26.9806 31.4205H29.809L27.0817 43.6178H31.6366L31.082 46.096H23.6987Z" fill="#6C7583"/>
<path d="M35.2672 31.417H39.2047C42.4482 31.417 43.9444 32.7995 43.2469 36.4977L42.218 41.0117C41.2799 44.7099 39.1629 46.0924 35.9229 46.0924H31.9854L35.2672 31.417ZM35.3683 43.6142H36.3553C37.9108 43.6142 38.978 42.8815 39.4733 40.6833L40.3347 36.8226C40.8055 34.7489 40.2929 33.8952 38.5281 33.8952H37.5446L35.3683 43.6142Z" fill="#6C7583"/>
<path d="M41.9565 46.096L48.9074 31.4205H52.5415L52.8275 46.096H50.1211L50.1001 43.0026H46.1801L44.6839 46.096H41.9565ZM47.2508 40.5279H50.0618L49.999 34.59H49.9572L47.2508 40.5279Z" fill="#6C7583"/>
<path d="M54.2295 46.096L57.5148 31.4205H60.6118L62.6033 40.12H62.6451L64.5947 31.4205H67.179L63.8972 46.096H61.1873L58.9761 36.6223H58.9343L56.8208 46.096H54.2295Z" fill="#6C7583"/>
<path d="M66.6699 46.096L69.9518 31.4205H72.7837L69.4984 46.096H66.6699Z" fill="#6C7583"/>
<path d="M75.647 41.7444C75.2983 43.3689 75.9156 43.8182 77.0421 43.8182C78.1686 43.8182 78.9917 43.3689 79.3404 41.7444L79.5671 40.7663H82.3956L82.2526 41.3781C81.4504 44.9933 79.2393 46.2964 76.491 46.2964C73.7393 46.2964 72.1001 44.9933 72.8988 41.3781L74.0916 36.1349C74.8902 32.5161 77.1049 31.2166 79.8566 31.2166C82.6048 31.2166 84.2475 32.5161 83.4453 36.1349L83.4244 36.1763H80.5925L80.6936 35.7719C81.0424 34.144 80.4286 33.6982 79.2986 33.6982C78.1686 33.6982 77.349 34.144 77.0002 35.7719L75.647 41.7444Z" fill="#6C7583"/>
<path d="M0.293457 55.8977L1.93264 48.5635H3.47766L4.47163 52.9115H4.49255L5.46909 48.5635H6.75951L5.12033 55.8977H3.76713L2.65807 51.1661H2.64063L1.58388 55.8977H0.293457Z" fill="#6C7583"/>
<path d="M5.78271 55.8977L9.25639 48.5635H11.07L11.2129 55.8977H9.85975L9.84928 54.3562H7.88924L7.14289 55.8977H5.78271ZM8.42633 53.112H9.83184L9.80046 50.1465H9.77953L8.42633 53.112Z" fill="#6C7583"/>
<path d="M17.1246 48.5604L16.8491 49.7978H15.1994L13.8358 55.8947H12.4198L13.7834 49.7978H12.1338L12.4093 48.5604H17.1246Z" fill="#6C7583"/>
<path d="M19.1302 48.5604L17.9828 53.6896C17.8294 54.3912 18.0561 54.7541 18.7396 54.7541C19.4267 54.7541 19.8243 54.3877 19.9777 53.6896L21.1252 48.5604H22.5411L21.3937 53.6999C21.0345 55.3175 19.915 55.9984 18.4606 55.9984C17.0063 55.9984 16.2041 55.3175 16.5633 53.6999L17.7143 48.5604H19.1302Z" fill="#6C7583"/>
<path d="M25.5542 55.8977L24.9892 52.9115H24.3126L23.6464 55.8977H22.2305L23.8697 48.5635H25.9204C27.6223 48.5635 28.2466 49.3757 27.9362 50.7582C27.7305 51.6707 27.2596 52.3308 26.3982 52.6246L27.0643 55.8977H25.5542ZM24.5672 51.7536H25.2926C25.9204 51.7536 26.3703 51.4495 26.5342 50.7375C26.6877 50.022 26.3807 49.7179 25.7565 49.7179H25.0275L24.5672 51.7536Z" fill="#6C7583"/>
<path d="M27.2041 55.8977L30.6813 48.5635H32.4983L32.6378 55.8977H31.2846L31.2742 54.3562H29.3176L28.5678 55.8977H27.2041ZM29.8477 53.112H31.2497L31.2184 50.1465H31.1974L29.8477 53.112Z" fill="#6C7583"/>
<path d="M33.3174 55.8977L34.9601 48.5635H36.3725L35.0089 54.6569H37.2828L37.0073 55.8977H33.3174Z" fill="#6C7583"/>
<path d="M37.3984 55.8977L39.0376 48.5635H40.4536L39.0899 54.6569H41.3639L41.0883 55.8977H37.3984Z" fill="#6C7583"/>
<path d="M44.1746 51.519L46.03 48.5604H47.5402L44.5443 52.9292L43.8782 55.8947H42.4622L43.1318 52.9292L42.082 48.5604H43.5922L44.1746 51.519Z" fill="#6C7583"/>
<path d="M53.8423 50.6066C53.7621 49.9118 53.5145 49.6181 53.0227 49.6181C52.5205 49.6181 52.1717 49.9222 52.0601 50.4234C51.8125 51.5294 54.9583 51.6123 54.4352 53.9039C54.1597 55.1654 53.1064 55.9984 51.6172 55.9984C50.4698 55.9984 49.7095 55.3797 49.6606 53.935L51.115 53.6446C51.0836 54.5225 51.523 54.8371 51.945 54.8371C52.4368 54.8371 52.8867 54.5156 53.0088 53.9661C53.3157 52.587 50.1698 52.5663 50.6232 50.5098C50.9092 49.2551 51.8439 48.4602 53.3052 48.4602C54.5642 48.4602 55.1676 49.1998 55.1816 50.2402L53.8423 50.6066Z" fill="#6C7583"/>
<path d="M60.5665 48.5604L60.291 49.7978H58.6413L57.2742 55.8947H55.8617L57.2253 49.7978H55.5757L55.8512 48.5604H60.5665Z" fill="#6C7583"/>
<path d="M62.6415 55.8977L62.0765 52.9115H61.3999L60.7338 55.8977H59.3213L60.9605 48.5635H63.0112C64.7131 48.5635 65.3374 49.3757 65.0305 50.7582C64.8247 51.6707 64.3539 52.3308 63.4925 52.6246L64.1586 55.8977H62.6415ZM61.658 51.7536H62.3869C63.0112 51.7536 63.4611 51.4495 63.625 50.7375C63.7785 50.022 63.4716 49.7179 62.8473 49.7179H62.1218L61.658 51.7536Z" fill="#6C7583"/>
<path d="M65.9583 50.9211C66.3629 49.11 67.4684 48.4602 68.8391 48.4602C70.2132 48.4602 71.0293 49.11 70.6317 50.9211L70.0423 53.541C69.6412 55.3521 68.5322 56.0018 67.1615 56.0018C65.7839 56.0018 64.9678 55.3521 65.3654 53.541L65.9583 50.9211ZM66.7395 53.7207C66.5617 54.5329 66.8721 54.7576 67.4371 54.7576C68.002 54.7576 68.4101 54.5329 68.5845 53.7207L69.2611 50.7379C69.4355 49.9222 69.1285 49.701 68.5601 49.701C67.9986 49.701 67.5905 49.9222 67.4161 50.7379L66.7395 53.7207Z" fill="#6C7583"/>
<path d="M70.7153 55.8977L72.358 48.5635H73.903L74.897 52.9115H74.9179L75.8945 48.5635H77.1849L75.5422 55.8977H74.189L73.0834 51.1661H73.0625L72.0023 55.8977H70.7153Z" fill="#6C7583"/>
<path d="M80.5403 55.2827C80.0695 55.7113 79.5987 55.9982 79.0651 55.9982C77.691 55.9982 76.8714 55.3484 77.269 53.5373L77.8653 50.9174C78.2664 49.1063 79.372 48.4565 80.7426 48.4565C82.1865 48.4565 82.7829 49.2791 82.4655 50.9451H81.0495C81.2693 50.0015 80.9763 49.6974 80.4671 49.6974C79.9021 49.6974 79.4941 49.9186 79.3197 50.7342L78.6431 53.717C78.4687 54.5293 78.7756 54.7539 79.3406 54.7539C79.8742 54.7539 80.2823 54.3668 80.4253 53.7378L80.5264 53.2919H79.5324L79.787 52.134H82.197L81.353 55.8945H80.6171L80.5403 55.2827Z" fill="#6C7583"/>
<path d="M52.2311 12.2135L48.5656 10.4266L43.519 14.4912L52.2311 12.2135Z" fill="#6C7583"/>
<path d="M31.6958 27.9569L52.6425 27.9811L54.0863 25.5548L47.0937 19.9729L31.6958 27.9569Z" fill="#6C7583"/>
<path d="M43.125 15.5804L54.5888 24.7292L57.372 20.001V14.7232L53.546 12.8568L43.125 15.5804Z" fill="#6C7583"/>
<path d="M40.6555 6.5625L30.1926 1.4541L30.1821 14.156L35.4624 16.7136L40.6555 6.5625Z" fill="#6C7583"/>
<path d="M38.2948 19.1503L30.186 15.2205V27.8567L35.3826 24.9672L38.2948 19.1503Z" fill="#6C7583"/>
<path d="M54.2153 5.33915L45.2242 1.02224L31.4307 0.998047L53.4062 11.7264L54.2153 5.33915Z" fill="#6C7583"/>
</svg>
