<svg width="76" height="51" viewBox="0 0 76 51" fill="none" xmlns="http://www.w3.org/2000/svg">
<path d="M36.0142 45.0807C21.0299 46.4636 5.4138 44.2874 3.22705 32.578C2.17404 26.8075 4.79253 20.686 8.27799 16.8811V14.8418C1.99503 20.3525 -1.4097 27.327 0.55592 35.551C3.05857 46.1337 16.4564 52.1007 36.9128 50.1246C45.0105 49.3419 55.6002 46.7374 62.9678 42.6904V36.9444C56.2812 40.9283 45.2246 44.2207 36.0142 45.0807ZM75.481 14.7049C71.9289 -2.65572 38.2572 -3.74382 16.523 9.47495V10.9351C38.215 -0.198695 68.984 -0.149554 71.785 15.8351C72.7221 21.1212 69.7456 26.6285 64.4139 29.8015V33.9469C70.8267 31.5987 77.3905 24.0205 75.481 14.7049Z" fill="#6C7583"/>
<path d="M61.7745 12.1779H57.8433V29.6754C57.8433 31.7252 58.8366 33.5083 61.7745 33.7926V12.1779Z" fill="#6C7583"/>
<path d="M14.9821 18.5664H11.0474V29.988C11.0474 32.0449 12.0407 33.828 14.9856 34.1053L14.9821 18.5664Z" fill="#6C7583"/>
<path d="M14.9716 12.7106H11.0474V16.4347H14.9716V12.7106Z" fill="#6C7583"/>
<path d="M38.5064 33.9356C35.3263 33.9356 33.9819 31.7243 33.9819 29.5481V14.3707H37.8746V18.5828H40.8089V21.7418H37.8746V29.3059C37.8746 30.1939 38.2958 30.6889 39.2224 30.6889H40.8089V33.9356H38.5064Z" fill="#6C7583"/>
<path d="M45.6739 27.4666C45.6739 29.4603 46.92 30.9239 49.1243 30.9239C50.8512 30.9239 51.7041 30.4466 52.701 29.4603L55.1054 31.7418C53.5645 33.2651 51.9463 34.1988 49.0962 34.1988C45.3685 34.1988 41.7988 32.1665 41.7988 26.2381C41.7988 21.1661 44.9192 18.3019 49.0084 18.3019C53.1678 18.3019 55.5581 21.6575 55.5581 26.059V27.4631H45.6739V27.4666ZM48.8329 21.5241C48.2625 21.4982 47.6966 21.6362 47.2022 21.9217C46.7077 22.2072 46.3052 22.6283 46.0425 23.1352C45.7993 23.66 45.6724 24.2311 45.6704 24.8095H51.669C51.5953 23.1387 50.8372 21.5276 48.8364 21.5276L48.8329 21.5241Z" fill="#6C7583"/>
<path d="M25.5578 21.7114C26.6986 21.7114 27.1724 22.2765 27.1724 23.1927V33.9579H31.0685V23.1716C31.0685 20.9848 29.9032 18.5699 26.4844 18.5699H18.4395V33.9579H22.3356V21.7114H25.5578Z" fill="#6C7583"/>
<path d="M65.9865 15.3053C65.5846 15.2863 65.2054 15.1132 64.9277 14.8221C64.65 14.5309 64.4951 14.144 64.4951 13.7416C64.4951 13.3393 64.65 12.9523 64.9277 12.6612C65.2054 12.37 65.5846 12.1969 65.9865 12.1779C66.1981 12.1679 66.4095 12.2009 66.6079 12.275C66.8064 12.349 66.9877 12.4626 67.141 12.6088C67.2943 12.755 67.4163 12.9307 67.4997 13.1255C67.5831 13.3202 67.6261 13.5298 67.6261 13.7416C67.6261 13.9534 67.5831 14.1631 67.4997 14.3578C67.4163 14.5525 67.2943 14.7283 67.141 14.8745C66.9877 15.0207 66.8064 15.1342 66.6079 15.2083C66.4095 15.2824 66.1981 15.3154 65.9865 15.3053ZM65.9865 12.4376C65.7301 12.439 65.4798 12.5163 65.2672 12.6597C65.0547 12.8031 64.8893 13.0062 64.792 13.2434C64.6947 13.4806 64.6697 13.7413 64.7204 13.9927C64.771 14.2441 64.8949 14.4748 65.0764 14.6559C65.258 14.837 65.4891 14.9602 65.7406 15.0102C65.9921 15.0601 66.2527 15.0345 66.4897 14.9365C66.7266 14.8386 66.9293 14.6727 67.0721 14.4597C67.2149 14.2467 67.2915 13.9963 67.2922 13.7399C67.2895 13.3947 67.1509 13.0646 66.9065 12.8209C66.6621 12.5772 66.3316 12.4395 65.9865 12.4376ZM66.6885 14.677H66.3972C66.3841 14.6771 66.3713 14.673 66.3606 14.6655C66.3499 14.6579 66.3418 14.6473 66.3375 14.6349L65.9409 13.9645C65.9268 13.949 65.9085 13.938 65.8882 13.9329H65.7057V14.6033C65.7062 14.6126 65.7048 14.6218 65.7017 14.6305C65.6986 14.6392 65.6938 14.6472 65.6876 14.654C65.6814 14.6609 65.6739 14.6664 65.6656 14.6704C65.6573 14.6743 65.6482 14.6766 65.639 14.677H65.3757C65.3581 14.6745 65.3419 14.6656 65.3303 14.6521C65.3187 14.6385 65.3124 14.6212 65.3126 14.6033V12.9185C65.3126 12.8202 65.3441 12.7781 65.4319 12.7676C65.5196 12.7571 65.7829 12.743 65.9093 12.743C66.3972 12.743 66.6815 12.8869 66.6815 13.3397V13.3713C66.6911 13.4829 66.6612 13.5942 66.5971 13.686C66.5329 13.7777 66.4385 13.844 66.3305 13.8732L66.7411 14.5753C66.7448 14.5914 66.7448 14.6082 66.7411 14.6244C66.7412 14.6387 66.7357 14.6525 66.7259 14.6629C66.7162 14.6734 66.7028 14.6797 66.6885 14.6806V14.677ZM66.3094 13.3362C66.3094 13.1467 66.1936 13.087 65.9584 13.087H65.7127V13.624H65.9584C66.2111 13.624 66.3094 13.5398 66.3094 13.3608V13.3362Z" fill="#6C7583"/>
</svg>
