<svg width="118" height="25" viewBox="0 0 118 25" fill="none" xmlns="http://www.w3.org/2000/svg">
<path d="M0.817383 0H12.6569C12.6569 3.96877 12.6569 7.93297 12.6569 11.8926H0.817383V0Z" fill="#6C7583"/>
<path d="M13.8647 0H25.7042C25.7042 3.96877 25.7042 7.93297 25.7042 11.8926H13.8663C13.8663 7.92381 13.8663 3.95961 13.8663 0H13.8647Z" fill="#6C7583"/>
<path d="M107.581 4.53207C108.672 3.81617 110.079 3.75206 111.313 4.09093C111.324 4.82515 111.313 5.5609 111.313 6.29512C110.728 6.03715 110.041 5.86772 109.426 6.12264C108.938 6.31649 108.648 6.8187 108.572 7.32243C108.481 7.96048 108.54 8.60617 108.523 9.24728C109.772 9.24728 111.021 9.24728 112.271 9.24728C112.28 8.43368 112.26 7.61856 112.281 6.80496C113.129 6.56225 113.97 6.29054 114.814 6.04173C114.814 7.11025 114.804 8.18792 114.824 9.26102C115.667 9.24881 116.512 9.26102 117.357 9.26102V11.337C116.509 11.3019 115.661 11.3278 114.813 11.3248C114.813 12.5261 114.813 13.7274 114.813 14.9272C114.827 15.5927 114.778 16.2613 114.855 16.9238C114.903 17.3146 115.044 17.7481 115.409 17.9496C116.016 18.293 116.795 18.1434 117.355 17.7664V19.876C116.615 20.1819 115.813 20.3055 115.015 20.2362C114.264 20.1797 113.486 19.9065 112.995 19.3051C112.43 18.6273 112.284 17.7099 112.272 16.8521C112.272 15.0081 112.272 13.1657 112.272 11.3217H108.528V19.9966H105.967C105.967 17.1055 105.967 14.2144 105.967 11.3233C105.373 11.311 104.779 11.3233 104.185 11.3141C104.185 10.6272 104.185 9.94029 104.185 9.25339C104.776 9.23965 105.368 9.25339 105.96 9.25339C106.004 8.33752 105.865 7.4018 106.137 6.50577C106.365 5.6912 106.877 4.98652 107.581 4.52139V4.53207Z" fill="#6C7583"/>
<path d="M52.7587 4.68174C53.0181 4.63924 53.284 4.66311 53.5319 4.75115C53.7797 4.8392 54.0014 4.98857 54.1765 5.18547C54.3746 5.41296 54.4979 5.69628 54.5297 5.99678C54.5615 6.29728 54.5003 6.60033 54.3543 6.86457C54.1795 7.14718 53.9214 7.36802 53.6158 7.49634C53.3101 7.62466 52.9723 7.65407 52.6493 7.58047C51.9852 7.46141 51.4336 6.84014 51.4609 6.14866C51.4648 5.78886 51.5985 5.44268 51.8371 5.17434C52.0758 4.90599 52.4032 4.73368 52.7587 4.68937V4.68174Z" fill="#6C7583"/>
<path d="M33.1357 4.99878H36.8589C38.0188 7.95501 39.1839 10.9107 40.354 13.8659C40.6504 14.6047 40.9284 15.3527 41.2384 16.0869C42.7292 12.3914 44.2428 8.70653 45.7214 5.00794C46.9158 4.98809 48.1103 5.00794 49.3047 5.00031C49.3047 9.99994 49.3047 14.9991 49.3047 19.9977C48.4431 19.9977 47.5814 20.0053 46.7213 19.9977C46.7319 16.3083 46.7213 12.6188 46.7213 8.92939C46.7213 8.76453 46.7213 8.59815 46.7061 8.43177C46.6557 8.50905 46.6106 8.58962 46.5709 8.67295C45.0922 12.4494 43.5833 16.2136 42.1122 19.9946C41.5044 20.016 40.8859 19.9946 40.272 20.0053C38.7523 16.2289 37.2327 12.4448 35.713 8.66532C35.6739 8.58685 35.6308 8.51043 35.5839 8.43635C35.5535 10.0529 35.5839 11.6709 35.5717 13.2874C35.5717 15.5262 35.5717 17.765 35.5717 20.0038C34.7587 20.0038 33.9457 20.0038 33.1403 20.0038C33.1403 15.0031 33.1403 10.003 33.1403 5.00336L33.1357 4.99878Z" fill="#6C7583"/>
<path d="M59.8049 9.23993C61.0481 8.89169 62.3628 8.89539 63.604 9.25062C63.8596 9.32068 64.1052 9.42328 64.335 9.55591C64.3198 10.3756 64.3349 11.1953 64.3274 12.015C63.5007 11.3815 62.4536 10.9801 61.4036 11.1129C60.9861 11.1508 60.5811 11.276 60.2147 11.4806C59.8483 11.6851 59.5286 11.9644 59.2761 12.3005C58.6348 13.1385 58.4874 14.2513 58.5968 15.277C58.6804 16.08 59.0101 16.8829 59.6317 17.4141C60.2775 17.9911 61.1832 18.1956 62.0281 18.1315C62.8669 18.0222 63.6629 17.6955 64.338 17.1836C64.338 17.9606 64.338 18.7375 64.338 19.513C63.291 20.1388 62.0373 20.3006 60.8428 20.2411C59.5977 20.1932 58.4112 19.6975 57.4996 18.8444C56.5492 17.8842 55.996 16.5982 55.9511 15.245C55.8873 13.859 56.1684 12.4134 56.9632 11.2549C57.6487 10.2728 58.6527 9.56052 59.8034 9.23993H59.8049Z" fill="#6C7583"/>
<path d="M87.7755 9.07497C88.9686 8.87901 90.1921 9.00707 91.3193 9.4459C91.3193 10.2351 91.3193 11.0227 91.3193 11.8104C90.5304 11.2643 89.5888 10.9847 88.6311 11.012C88.1524 11.0319 87.6266 11.2349 87.4078 11.6913C87.2345 12.1492 87.3546 12.7369 87.7786 13.0071C88.5049 13.4956 89.3711 13.7032 90.1234 14.1397C90.716 14.474 91.2904 14.9106 91.5898 15.541C92.1536 16.721 91.915 18.2886 90.9242 19.1602C89.9775 20.0486 88.6144 20.2944 87.3607 20.2471C86.4645 20.2031 85.5832 20 84.7575 19.6472C84.7575 18.8183 84.7575 17.9895 84.7575 17.1606C85.4448 17.67 86.2391 18.0147 87.0795 18.168C87.6661 18.2642 88.2952 18.2688 88.8469 18.0047C89.3985 17.7406 89.4638 17.0003 89.1508 16.5439C88.8605 16.1928 88.4335 15.999 88.0323 15.8097C87.2725 15.4678 86.4853 15.1838 85.8228 14.6725C85.3491 14.3083 85.0117 13.7941 84.8654 13.2132C84.6618 12.3584 84.7256 11.3952 85.2195 10.6472C85.7848 9.77714 86.7665 9.2551 87.7679 9.07497H87.7755Z" fill="#6C7583"/>
<path d="M70.0645 9.41337C70.4235 9.21166 70.8212 9.08934 71.2311 9.05459C71.641 9.01984 72.0536 9.07347 72.4412 9.21188C72.4412 10.0697 72.4412 10.9276 72.4412 11.7855C71.9259 11.4588 71.3164 11.3153 70.7103 11.3779C69.9839 11.4603 69.408 12.0206 69.1086 12.6632C68.7849 13.344 68.7241 14.1133 68.7439 14.8582C68.7439 16.5719 68.7439 18.2856 68.7439 19.9993H66.2183C66.2183 16.4183 66.2183 12.8367 66.2183 9.25462C67.0601 9.24394 67.9035 9.25462 68.7454 9.25462C68.7454 9.8652 68.7454 10.4849 68.7454 11.1016C69.019 10.4315 69.4262 9.78125 70.0675 9.42253L70.0645 9.41337Z" fill="#6C7583"/>
<path d="M51.6929 9.2517C52.5408 9.2517 53.3918 9.24101 54.2398 9.2517C54.2307 12.8328 54.2398 16.4138 54.2398 19.9949H51.6944C51.6944 16.4118 51.6944 12.8292 51.6944 9.24712L51.6929 9.2517Z" fill="#6C7583"/>
<path d="M83.0557 11.7536C82.6076 10.7504 81.813 9.94408 80.8188 9.48381C79.6791 8.96176 78.3874 8.89154 77.1534 9.04877C75.8633 9.21362 74.6065 9.82268 73.7874 10.8561C73.0398 11.772 72.6751 12.9641 72.6052 14.141C72.5018 15.527 72.7328 16.9985 73.5428 18.1556C74.2491 19.1528 75.3032 19.8465 76.4954 20.0987C77.4842 20.3056 78.5049 20.3056 79.4937 20.0987C80.6593 19.865 81.7024 19.2182 82.4326 18.2762C83.1302 17.3878 83.4797 16.2658 83.5587 15.1469C83.6453 14.0036 83.5298 12.8222 83.0557 11.7536ZM80.5817 16.6887C80.3401 17.2512 79.8891 17.6966 79.325 17.9297C78.6551 18.1762 77.9257 18.2082 77.237 18.0212C76.8916 17.9252 76.5702 17.7572 76.2937 17.5281C76.0172 17.299 75.7919 17.0141 75.6323 16.6917C75.2205 15.8644 75.1581 14.9088 75.2432 14.0006C75.3207 13.1763 75.6064 12.3215 76.2325 11.7582C76.6999 11.3457 77.2959 11.1098 77.9178 11.0912C78.6867 11.0393 79.5058 11.2591 80.059 11.8208C80.6501 12.4054 80.8796 13.2526 80.9434 14.0616C80.989 14.9592 80.9525 15.8751 80.5817 16.6932V16.6887Z" fill="#6C7583"/>
<path d="M103.561 12.0697C103.168 10.9882 102.382 10.0954 101.363 9.56937C100.195 8.9771 98.8399 8.89162 97.5634 9.05037C96.5207 9.16698 95.5359 9.592 94.7339 10.2715C93.7735 11.1019 93.2142 12.3231 93.0456 13.5732C92.8769 14.8234 92.9407 16.1377 93.4467 17.3069C93.9451 18.4649 94.8801 19.3771 96.0468 19.8439C97.1866 20.3018 98.454 20.3461 99.6529 20.1492C100.897 19.9532 102.021 19.2931 102.802 18.3007C103.613 17.2718 103.963 15.9377 103.96 14.6372C103.992 13.7636 103.856 12.8921 103.561 12.0697ZM101.252 15.7133C101.172 16.2883 100.944 16.8323 100.591 17.2917C100.206 17.7356 99.6741 18.0233 99.0937 18.1007C98.4767 18.2049 97.8429 18.1357 97.2625 17.9007C96.6456 17.622 96.1611 17.1128 95.9116 16.4811C95.6299 15.7351 95.5258 14.9332 95.6077 14.1396C95.6669 13.3763 95.8827 12.5917 96.3842 12.0025C96.6184 11.7326 96.9049 11.5135 97.2263 11.3586C97.5477 11.2038 97.8972 11.1164 98.2534 11.1019C98.9767 11.0516 99.7487 11.2195 100.305 11.7125C100.817 12.1399 101.101 12.781 101.23 13.4237C101.372 14.1796 101.38 14.9549 101.252 15.7133Z" fill="#6C7583"/>
<path d="M0.817383 13.1062H12.6569V24.9973H0.817383V13.1062Z" fill="#6C7583"/>
<path d="M13.8663 13.1074H25.7042V25H13.8647C13.8647 21.0312 13.8647 17.0675 13.8647 13.1089L13.8663 13.1074Z" fill="#6C7583"/>
</svg>
