<svg width="56" height="65" viewBox="0 0 56 65" fill="none" xmlns="http://www.w3.org/2000/svg">
<path fill-rule="evenodd" clip-rule="evenodd" d="M47.3645 22.7281C48.0138 19.0635 45.5906 16.1862 42.7806 14.0891C38.8423 11.1689 34.3896 9.43677 29.8057 8.0697V56.4073C31.8386 54.6179 33.8716 52.6103 35.8159 50.5597C39.967 45.936 43.8166 41.2264 45.4167 35.5542C46.066 32.9811 45.7218 30.0573 43.5576 28.3109C45.4167 26.8293 47.1055 24.997 47.3645 22.7281ZM39.449 39.437C37.9296 42.1252 36.0157 44.5661 33.7723 46.6768L33.7297 32.8487C35.2873 31.7142 36.8874 30.7014 38.8317 30.5368C39.2073 30.5209 39.5817 30.5912 39.9265 30.7425C40.2713 30.8937 40.5775 31.122 40.8221 31.41C42.5535 34.1585 40.5205 37.0357 39.4384 39.437H39.449ZM43.3837 21.6366C42.997 23.8196 40.6163 25.0829 38.931 25.999C37.2479 26.8482 35.5144 27.5916 33.7404 28.225V14.0891C36.4391 14.9676 38.9801 16.2787 41.2656 17.972C42.33 18.8881 43.8166 20.0226 43.3944 21.6366H43.3837Z" fill="#6C7583"/>
<path fill-rule="evenodd" clip-rule="evenodd" d="M26.2577 56.0572V7.89502L22.4082 9.90267V35.7302C22.2343 36.471 22.763 37.6054 21.9327 37.9526C21.8407 37.9787 21.7424 37.9712 21.6554 37.9312C21.5684 37.8912 21.4982 37.8215 21.4573 37.7343C19.8146 31.493 19.1227 24.9118 18.807 18.148L18.6792 12.2575L15.0142 15.0059V16.577C15.2306 22.8146 15.6635 28.9235 16.8308 34.7675L15.3584 36.428C14.852 35.6609 14.4184 34.8473 14.0633 33.9981C12.2007 29.0237 11.5088 23.5733 11.2498 17.944L8.05664 20.3453C8.35822 28.8949 9.95835 36.9648 15.1064 43.3779C16.0999 42.2434 17.0969 41.066 18.0903 39.9745C18.6251 42.2662 19.3369 44.5121 20.2191 46.6917C21.6383 50.0522 23.249 53.4555 26.2754 56.0715L26.2577 56.0572Z" fill="#6C7583"/>
<path fill-rule="evenodd" clip-rule="evenodd" d="M55.7058 14.2218L49.951 12.7903L48.915 8.85371L43.0325 7.45802L41.8226 3.16357L27.9465 0L14.3223 3.18505L13.1089 7.47949L7.2264 8.87519C6.83967 10.2244 6.49197 11.5342 6.16201 12.844L0.393017 14.2218C-0.0362864 26.5683 3.33428 37.4297 9.43323 47.1136C13.8895 54.0384 20.5809 61.3784 27.9465 65C32.9137 62.6023 37.3309 58.587 41.3081 54.0957C50.9551 42.8407 56.2309 29.6639 55.7129 14.2218H55.7058ZM38.7572 51.5655C35.5995 55.1442 32.0551 58.6764 28.0742 60.727C24.2673 58.8053 20.9393 55.4914 17.9093 52.1381C10.0399 42.8335 4.80669 32.4553 3.94098 20.2877C3.84638 19.2875 3.81794 18.282 3.85583 17.278L8.74138 16.14L9.86608 12.0853L15.8976 10.6538L15.9402 10.525L17.0046 6.33788L27.9039 3.76122L39.151 6.33788L40.2154 10.6109L46.3143 12.096L47.3539 16.1507L52.2855 17.2851C52.1543 30.5478 46.921 41.674 38.7465 51.5763L38.7572 51.5655Z" fill="#6C7583"/>
</svg>
