<svg width="54" height="32" viewBox="0 0 54 32" fill="none" xmlns="http://www.w3.org/2000/svg">
<path d="M53.5416 15.4286C47.9504 5.94505 37.7984 0 26.8571 0C15.9159 0 5.75295 5.94505 0.172671 15.4286C-0.0575569 15.7692 -0.0575569 16.2308 0.172671 16.5714C5.76391 26.0549 15.9159 32 26.8571 32C37.7984 32 47.9613 26.0549 53.5416 16.5714C53.7718 16.2308 53.7718 15.7692 53.5416 15.4286ZM26.8571 29.7143C16.9354 29.7143 7.69344 24.4615 2.56265 16C7.69344 7.53846 16.9354 2.28571 26.8571 2.28571C36.7789 2.28571 46.0209 7.53846 51.1516 16C46.0209 24.4615 36.7789 29.7143 26.8571 29.7143Z" fill="white"/>
<path d="M26.8568 5.71387C21.1559 5.71387 16.5952 10.2853 16.5952 15.9996C16.5952 21.7139 21.1559 26.2853 26.8568 26.2853C32.5577 26.2853 37.1184 21.7139 37.1184 15.9996C37.1184 10.2853 32.5577 5.71387 26.8568 5.71387ZM26.8568 23.9996C22.4057 23.9996 18.8756 20.4501 18.8756 15.9996C18.8756 11.549 22.4167 7.99958 26.8568 7.99958C31.2969 7.99958 34.838 11.549 34.838 15.9996C34.838 20.4501 31.3079 23.9996 26.8568 23.9996Z" fill="white"/>
<path d="M26.8566 11.4287V13.7144C28.1064 13.7144 29.1369 14.7474 29.1369 16.0001C29.1369 17.2529 28.1064 18.2859 26.8566 18.2859C25.6068 18.2859 24.5762 17.2529 24.5762 16.0001H22.2959C22.2959 18.5166 24.346 20.5716 26.8566 20.5716C29.3672 20.5716 31.4173 18.5166 31.4173 16.0001C31.4173 13.4837 29.3672 11.4287 26.8566 11.4287Z" fill="white"/>
</svg>
